# xmcd CD database file
#
# Track frame offsets:
#	150
#	18920
#	40925
#	62997
#	95105
#	134105
#
# Disc length: 2475 seconds
#
# Revision: 0
# Processed by: cddbd v1.5.2PL0 Copyright (c) Steve Scherf et al.
# Submitted via: CDex 1.70beta2
#
DISCID=5609a906
DTITLE=The Jazztet and John Lewis - The Jazztet and John Lewis
DYEAR=1900
DGENRE=Jazz
TTITLE0=bel
TTITLE1=Milano
TTITLE2=Django
TTITLE3=New York 19
TTITLE4=2Degrees East, 3Degrees West
TTITLE5=Odds Against Tomorrow
EXTD=
EXTT0=
EXTT1=
EXTT2=
EXTT3=
EXTT4=
EXTT5=
PLAYORDER=
